<svg width="17" height="34" viewBox="0 0 17 34" fill="none" xmlns="http://www.w3.org/2000/svg">
<path d="M2.32045 32.6981L1.53834 32.1113L0.896607 34H2.32045V32.6981ZM10.8419 7.61796L11.6239 8.20475L11.718 7.92798V7.61796H10.8419ZM10.8419 7.41867H11.718V6.11673H10.8419V7.41867ZM0.876143 7.41867H0V8.72059H0.876143V7.41867ZM0.876143 1.30194V0H0V1.30194H0.876143ZM16.1239 1.30194H17V0H16.1239V1.30194ZM16.1239 7.46466L16.9063 8.0503L17 7.77401V7.46466H16.1239ZM7.57153 32.6981V34H8.11123L8.35402 33.2837L7.57153 32.6981ZM3.10256 33.2849L11.6239 8.20475L10.0597 7.03118L1.53834 32.1113L3.10256 33.2849ZM11.718 7.61796V7.41867H9.96571V7.61796H11.718ZM10.8419 6.11673H0.876143V8.72059H10.8419V6.11673ZM1.75229 7.41867V1.30194H0V7.41867H1.75229ZM0.876143 2.60389H16.1239V0H0.876143V2.60389ZM15.2477 1.30194V7.46466H17V1.30194H15.2477ZM15.3414 6.87903L6.78899 32.1125L8.35402 33.2837L16.9063 8.0503L15.3414 6.87903ZM7.57153 31.3961H2.32045V34H7.57153V31.3961Z" fill="white"/>
</svg>
